<?xml version="1.0" encoding="UTF-8"?>
<svg width="60px" height="60px" viewBox="0 0 60 60" version="1.1" xmlns="http://www.w3.org/2000/svg" xmlns:xlink="http://www.w3.org/1999/xlink">
    <title>D2E26828-55E3-439A-91F7-488AB2BE5094</title>
    <g id="Pago-de-servicios-y-gift-cards" stroke="none" stroke-width="1" fill="none" fill-rule="evenodd">
        <g id="12-AN:DP:C:DA:VerEnApp-Copy" transform="translate(-158.000000, -424.000000)">
            <g id="Group" transform="translate(24.000000, 424.000000)">
                <g id="05.-Elementos-de-construccion/figura/verde" transform="translate(134.000000, 0.000000)">
                    <g id="Group" transform="translate(0.000000, 0.000000)">
                        <circle id="Oval" fill="#00C851" cx="30" cy="30" r="30"></circle>
                        <path d="M26.2970645,43.75 C25.4676583,43.75 24.6645823,43.4159538 24.0545957,42.810933 L16.0501668,34.8825914 C14.7182895,33.5627585 14.6436868,31.3459063 15.8812136,29.9279619 C17.1209347,28.5170254 19.2032272,28.4305939 20.5351045,29.7504268 L26.1061694,35.2703653 L39.2779312,19.8948955 C40.5022928,18.4629352 42.5823911,18.3601517 43.9274336,19.6659687 C45.2702819,20.9694498 45.3646323,23.1863019 44.1402707,24.6159263 L28.7282343,42.6077021 C28.1358012,43.2991544 27.3085891,43.7079522 26.4331047,43.747664 C26.3870266,43.75 26.3431427,43.75 26.2970645,43.75" id="Fill-1" fill="#FFFFFF"></path>
                    </g>
                </g>
            </g>
        </g>
    </g>
</svg>