<?xml version="1.0" encoding="UTF-8"?>
<svg width="142px" height="180px" viewBox="0 0 142 180" version="1.1" xmlns="http://www.w3.org/2000/svg" xmlns:xlink="http://www.w3.org/1999/xlink">
    <title>D76E3CC4-4633-4281-8FCD-4EEA53DCF54A</title>
    <g id="Pago-de-servicios-y-gift-cards" stroke="none" stroke-width="1" fill="none" fill-rule="evenodd">
        <g id="12-AN:DP:C:DA:VerEnApp-Copy" transform="translate(-117.000000, -201.000000)" fill="#141419">
            <g id="Group-3" transform="translate(117.000000, 201.000000)">
                <path d="M112.930656,63.0461925 C90.0102558,49.3350806 52.203568,48.074387 30.3233062,54.7635896 C26.8097619,55.8369752 23.0941336,53.8390239 22.0293717,50.2998447 C20.9646099,46.758955 22.9463915,43.0187833 26.4624831,41.9428318 C51.5794851,34.2632064 93.3327543,35.7462747 119.719149,51.523761 C122.88032,53.4139461 123.917062,57.5253125 122.043115,60.7035604 C120.168319,63.88694 116.083336,64.9363776 112.930656,63.0461925 Z M111.9668,83.1158108 C110.36259,85.7332463 106.957563,86.553484 104.35676,84.9470788 C85.2850483,73.1639344 56.2033368,69.750962 33.6401591,76.6348259 C30.7139374,77.5232038 27.6233117,75.8648416 26.7351912,72.9297024 C25.8530027,69.988601 27.5038222,66.8882218 30.4241118,65.9938817 C56.199947,58.1330576 88.2417779,61.9403914 110.146492,75.4704802 C112.747296,77.0802925 113.565926,80.5043376 111.9668,83.1158108 Z M103.978597,102.664815 C102.699737,104.796687 99.9668545,105.465543 97.8768031,104.165853 C81.154691,93.7795698 60.1079241,91.4333879 35.3215127,97.1877986 C32.933004,97.7443146 30.5529983,96.222537 30.0079524,93.7959887 C29.4603555,91.3685762 30.9517917,88.9498053 33.3454023,88.3958817 C60.4701544,82.0935965 83.7379198,84.8061803 102.506718,96.4619081 C104.59932,97.7607336 105.258307,100.538993 103.978597,102.664815 Z M71.0004239,0 C31.7884254,0 0,31.8468573 0,71.133029 C0,110.421749 31.7884254,142.267757 71.0004239,142.267757 C110.21327,142.267757 142,110.421749 142,71.133029 C142,31.8468573 110.21327,0 71.0004239,0 L71.0004239,0 Z" id="Fill-1"></path>
                <g id="Group-26" transform="translate(0.000000, 161.655787)">
                    <g id="Group-25">
                        <path d="M5.86664365,7.00856546 C3.4487839,6.38566216 3.01818781,5.94847364 3.01818781,5.03001645 C3.01818781,4.1619624 3.77469916,3.57808088 4.89943286,3.57808088 C5.98971888,3.57808088 7.07064048,4.02159237 8.20423694,4.93462987 C8.23851741,4.9622703 8.2814934,4.97329034 8.32380052,4.96606408 C8.36610763,4.95919914 8.40339808,4.93426855 8.42831413,4.89633071 L9.60889991,3.09843811 C9.65739423,3.02436898 9.64418371,2.92247876 9.57879999,2.86575265 C8.22982187,1.6963637 6.71077921,1.12783797 4.93521832,1.12783797 C2.32455186,1.12783797 0.500998329,2.82040789 0.500998329,5.24210708 C0.500998329,7.83904299 2.07405363,8.75858412 4.79241092,9.46838316 C7.1060915,10.0441351 7.49655436,10.5263071 7.49655436,11.3887608 C7.49655436,12.3442526 6.7069331,12.9382508 5.43621478,12.9382508 C4.02503016,12.9382508 2.87370819,12.4246447 1.58593325,11.2198471 C1.55399389,11.1902194 1.51018178,11.1764895 1.46971411,11.1790187 C1.42723978,11.1828125 1.3882771,11.20413 1.36118718,11.239358 L0.0374595491,12.941322 C-0.0180580826,13.0119587 -0.0110347677,13.117462 0.0530111748,13.1785239 C1.55148556,14.6235945 3.39410238,15.3870485 5.38270381,15.3870485 C8.19587585,15.3870485 10.0137438,13.7262741 10.0137438,11.1560753 C10.0137438,8.98386266 8.81242256,7.78249753 5.86664365,7.00856546" id="Fill-2"></path>
                        <path d="M18.4204845,9.91984353 C18.4204845,11.7540481 17.3746795,13.0339987 15.8772084,13.0339987 C14.396794,13.0339987 13.2800869,11.6958767 13.2800869,9.91984353 C13.2800869,8.14399101 14.396794,6.80568832 15.8772084,6.80568832 C17.3505995,6.80568832 18.4204845,8.11508598 18.4204845,9.91984353 Z M16.3783721,4.43240504 C15.1589909,4.43240504 14.1588374,4.95125026 13.3340995,6.01441323 L13.3340995,4.81774517 C13.3340995,4.72326187 13.2631975,4.64630223 13.1757405,4.64630223 L11.0108873,4.64630223 C10.9234303,4.64630223 10.8526955,4.72326187 10.8526955,4.81774517 L10.8526955,18.1144183 C10.8526955,18.2089016 10.9234303,18.2858613 11.0108873,18.2858613 L13.1757405,18.2858613 C13.2631975,18.2858613 13.3340995,18.2089016 13.3340995,18.1144183 L13.3340995,13.9174086 C14.1590046,14.9175225 15.1593253,15.4060174 16.3783721,15.4060174 C18.64406,15.4060174 20.937674,13.5217711 20.937674,9.91984353 C20.937674,6.31719338 18.64406,4.43240504 16.3783721,4.43240504 L16.3783721,4.43240504 Z" id="Fill-3"></path>
                        <path d="M26.8168574,13.0531483 C25.264872,13.0531483 24.0948212,11.7059935 24.0948212,9.91984353 C24.0948212,8.12628668 25.2244044,6.82447658 26.7810719,6.82447658 C28.3430906,6.82447658 29.5210008,8.17163144 29.5210008,9.95904597 C29.5210008,11.7524222 28.3837255,13.0531483 26.8168574,13.0531483 Z M26.8168574,4.43240504 C23.8990045,4.43240504 21.6130828,6.85970458 21.6130828,9.95904597 C21.6130828,13.0246046 23.8832857,15.4264316 26.7810719,15.4264316 C29.7092926,15.4264316 32.0022376,13.0072616 32.0022376,9.91984353 C32.0022376,6.84272288 29.7250114,4.43240504 26.8168574,4.43240504 L26.8168574,4.43240504 Z" id="Fill-4"></path>
                        <path d="M38.2332557,4.64630223 L35.8508469,4.64630223 L35.8508469,2.01486095 C35.8508469,1.92037765 35.7802794,1.84359867 35.6928224,1.84359867 L33.5281364,1.84359867 C33.4405122,1.84359867 33.3692757,1.92037765 33.3692757,2.01486095 L33.3692757,4.64630223 L32.3283201,4.64630223 C32.2410303,4.64630223 32.17063,4.72326187 32.17063,4.81774517 L32.17063,6.82790905 C32.17063,6.9222117 32.2410303,6.99917133 32.3283201,6.99917133 L33.3692757,6.99917133 L33.3692757,12.2006307 C33.3692757,14.3025681 34.337657,15.3682602 36.247497,15.3682602 C37.024075,15.3682602 37.6683805,15.1950107 38.2755628,14.8230392 C38.3248932,14.7932309 38.355662,14.7357821 38.355662,14.6747203 L38.355662,12.7604849 C38.355662,12.7014103 38.3270671,12.6457681 38.2804122,12.6146952 C38.2332557,12.582719 38.1745608,12.5810931 38.1262337,12.606927 C37.7091826,12.8336508 37.3060109,12.9382508 36.8553482,12.9382508 C36.1608761,12.9382508 35.8508469,12.5977135 35.8508469,11.8340789 L35.8508469,6.99917133 L38.2332557,6.99917133 C38.3207127,6.99917133 38.391113,6.9222117 38.391113,6.82790905 L38.391113,4.81774517 C38.391113,4.72326187 38.3207127,4.64630223 38.2332557,4.64630223" id="Fill-5"></path>
                        <path d="M46.5336433,4.65659965 L46.5336433,4.33340533 C46.5336433,3.38261064 46.8710968,2.95861004 47.6279426,2.95861004 C48.0792742,2.95861004 48.441811,3.05544188 48.8478255,3.20177357 C48.8978248,3.21875527 48.949998,3.21026442 48.9906329,3.17792693 C49.0324384,3.14558943 49.0560166,3.09374104 49.0560166,3.03882149 L49.0560166,1.06786005 C49.0560166,0.992706978 49.0112012,0.925864106 48.9441453,0.903643368 C48.5152214,0.765983183 47.9663995,0.624348556 47.1446717,0.624348556 C45.1448664,0.624348556 44.0880247,1.84088883 44.0880247,4.14118691 L44.0880247,4.63618548 L43.0479052,4.63618548 C42.9606155,4.63618548 42.8890445,4.71314511 42.8890445,4.80744775 L42.8890445,6.82790905 C42.8890445,6.9222117 42.9606155,6.99917133 43.0479052,6.99917133 L44.0880247,6.99917133 L44.0880247,15.0221225 C44.0880247,15.1166058 44.1585923,15.1933848 44.2458821,15.1933848 L46.4107353,15.1933848 C46.4981923,15.1933848 46.5694287,15.1166058 46.5694287,15.0221225 L46.5694287,6.99917133 L48.5908056,6.99917133 L51.6872514,15.0199547 C51.3357512,15.8627168 50.9901038,16.030366 50.5182039,16.030366 C50.136771,16.030366 49.7351043,15.907339 49.3244076,15.6645367 C49.2857794,15.6415934 49.2401278,15.6377996 49.1983224,15.6517101 C49.1570186,15.6676079 49.1222365,15.700668 49.1046782,15.7442062 L48.370909,17.4833855 C48.3359596,17.5655842 48.3657251,17.6620547 48.4389683,17.7046896 C49.2050112,18.1528981 49.8966405,18.3442133 50.7511438,18.3442133 C52.3497841,18.3442133 53.233384,17.5395696 54.0124703,15.3753058 L57.7684387,4.89000773 C57.7871675,4.83725606 57.7816492,4.7778201 57.7517165,4.73084943 C57.721951,4.68460139 57.6739584,4.65659965 57.6214508,4.65659965 L55.3676356,4.65659965 C55.3002452,4.65659965 55.2397109,4.70284769 55.2176376,4.77149713 L52.9088065,11.896044 L50.3799115,4.76680006 C50.3568349,4.7003185 50.2978056,4.65659965 50.2320874,4.65659965 L46.5336433,4.65659965" id="Fill-6"></path>
                        <path d="M41.7216693,4.64630223 L39.5566489,4.64630223 C39.4691919,4.64630223 39.3981226,4.72326187 39.3981226,4.81774517 L39.3981226,15.0221225 C39.3981226,15.1166058 39.4691919,15.1933848 39.5566489,15.1933848 L41.7216693,15.1933848 C41.808959,15.1933848 41.8801955,15.1166058 41.8801955,15.0221225 L41.8801955,4.81774517 C41.8801955,4.72326187 41.808959,4.64630223 41.7216693,4.64630223" id="Fill-7"></path>
                        <path d="M40.6501121,0 C39.7925988,0 39.0964545,0.750266075 39.0964545,1.67685281 C39.0964545,2.60380085 39.7925988,3.35478955 40.6501121,3.35478955 C41.5074582,3.35478955 42.2027663,2.60380085 42.2027663,1.67685281 C42.2027663,0.750266075 41.5074582,0 40.6501121,0" id="Fill-8"></path>
                        <path d="M59.7053686,5.66141061 L59.3087185,5.66141061 L59.3087185,6.20789625 L59.7053686,6.20789625 C59.9033592,6.20789625 60.021585,6.10329619 60.021585,5.93438244 C60.021585,5.75661654 59.9033592,5.66141061 59.7053686,5.66141061 Z M59.9625557,6.44094302 L60.3934862,7.09275135 L60.0301133,7.09275135 L59.6421588,6.49495929 L59.3087185,6.49495929 L59.3087185,7.09275135 L59.0045421,7.09275135 L59.0045421,5.36513409 L59.717743,5.36513409 C60.0891426,5.36513409 60.3336208,5.57035978 60.3336208,5.91613615 C60.3336208,6.1994054 60.1821179,6.37247424 59.9625557,6.44094302 Z M59.6247677,4.79010474 C58.8443436,4.79010474 58.2537163,5.46034002 58.2537163,6.2810621 C58.2537163,7.1012422 58.8401631,7.76262532 59.6167411,7.76262532 C60.3969979,7.76262532 60.9881269,7.09275135 60.9881269,6.27166796 C60.9881269,5.4513072 60.4013457,4.79010474 59.6247677,4.79010474 Z M59.6167411,7.92720331 C58.7598966,7.92720331 58.0931834,7.18380218 58.0931834,6.2810621 C58.0931834,5.37814136 58.7685922,4.62643003 59.6247677,4.62643003 C60.4814449,4.62643003 61.1483254,5.3696505 61.1483254,6.27166796 C61.1483254,7.17440805 60.4734182,7.92720331 59.6167411,7.92720331 L59.6167411,7.92720331 Z" id="Fill-9"></path>
                    </g>
                    <path d="M67.9979194,14.5928926 L67.9979194,9.37763089 L70.834394,9.37763089 C72.3145564,9.37763089 73.4533753,9.0233867 74.2508505,8.31489832 C75.0483258,7.60640995 75.4470634,6.39607563 75.4470634,4.68389539 C75.4470634,3.11603685 75.0483258,1.95818316 74.2508505,1.21033431 C73.4533753,0.462485469 72.3840334,0.0885610472 71.042825,0.0885610472 L71.042825,0.0885610472 L65.2248804,0.0885610472 L65.2248804,14.5928926 L67.9979194,14.5928926 Z M70.5987763,6.87824134 L67.9979194,6.87824134 L67.9979194,2.60763084 L70.5987763,2.60763084 C71.2572975,2.60763084 71.7693129,2.76835274 72.1348224,3.08979654 C72.5003319,3.41124034 72.6830866,3.9491667 72.6830866,4.70357562 C72.6830866,5.45798454 72.5003319,6.00903106 72.1348224,6.35671517 C71.7693129,6.70439928 71.2572975,6.87824134 70.5987763,6.87824134 L70.5987763,6.87824134 Z M79.9056752,14.5928926 L79.9056752,9.46619194 C79.9056752,8.60682178 80.0053596,7.97049425 80.2047284,7.55720936 C80.5611757,6.82248068 81.2589666,6.45511633 82.298101,6.45511633 C82.3766403,6.45511633 82.4793454,6.45839637 82.6062165,6.46495645 C82.7330875,6.47151653 82.8780831,6.48463668 83.041203,6.50431691 L83.041203,6.50431691 L83.041203,3.63100294 C82.9264149,3.62444286 82.8524068,3.6195228 82.8191786,3.61624276 C82.7859505,3.61296272 82.7451705,3.6113227 82.6968387,3.6113227 C81.9235293,3.6113227 81.2952155,3.8310853 80.8118971,4.2706105 C80.5158646,4.5330136 80.1684796,5.02173938 79.7697419,5.73678784 L79.7697419,5.73678784 L79.7697419,3.86716573 L77.3048183,3.86716573 L77.3048183,14.5928926 L79.9056752,14.5928926 Z M88.5419699,14.9471368 C90.0644227,14.9471368 91.2485527,14.4256106 92.0943598,13.3825582 C92.6380929,12.7265505 92.9431877,12.0803829 93.0096439,11.4440553 L93.0096439,11.4440553 L90.3725382,11.4440553 C90.2335842,11.7589391 90.073485,12.004942 89.8922406,12.1820641 C89.5599592,12.5100679 89.1279934,12.6740699 88.5963433,12.6740699 C88.0949005,12.6740699 87.6659554,12.5395883 87.3095082,12.2706251 C86.7234847,11.83766 86.4123485,11.0832511 86.3760996,10.0073983 L86.3760996,10.0073983 L93.136515,10.0073983 C93.148598,9.0824274 93.1214113,8.37393902 93.054955,7.8819332 C92.9401669,7.04224328 92.6894455,6.30423455 92.3027908,5.66790702 C91.8738458,4.94629849 91.3301127,4.41821225 90.6715914,4.08364829 C90.0130702,3.74908433 89.2729889,3.58180236 88.4513478,3.58180236 C87.067849,3.58180236 85.9426235,4.07708821 85.0756712,5.06765993 C84.2087189,6.05823164 83.7752427,7.48176847 83.7752427,9.33827043 C83.7752427,11.3194139 84.2555403,12.7495108 85.2161356,13.6285612 C86.1767308,14.5076116 87.2853422,14.9471368 88.5419699,14.9471368 Z M90.4540982,8.15745646 L86.4395351,8.15745646 C86.5241158,7.46208824 86.7310365,6.91104172 87.0602971,6.50431691 C87.3895578,6.0975921 87.8532413,5.8942297 88.4513478,5.8942297 C89.0011224,5.8942297 89.4617852,6.08611197 89.8333362,6.46987651 C90.2048871,6.85364104 90.4118078,7.4161677 90.4540982,8.15745646 L90.4540982,8.15745646 Z M97.4501313,14.5928926 L97.4501313,8.13777623 C97.4501313,7.55392933 97.5196083,7.11440413 97.6585623,6.81920064 C97.9123044,6.30095451 98.4077057,6.04183145 99.1447662,6.04183145 C99.7791215,6.04183145 100.205046,6.30095451 100.422539,6.81920064 C100.543369,7.10784405 100.603783,7.57032952 100.603783,8.20665704 L100.603783,8.20665704 L100.603783,14.5928926 L103.20464,14.5928926 L103.20464,8.20665704 C103.20464,7.72777138 103.274117,7.31776653 103.413071,6.9766425 C103.684938,6.3337549 104.177319,6.0123111 104.890213,6.0123111 C105.506444,6.0123111 105.929348,6.26159404 106.158924,6.76015994 C106.279753,7.02256304 106.340168,7.357127 106.340168,7.76385181 L106.340168,7.76385181 L106.340168,14.5928926 L108.986336,14.5928926 L109.004461,7.83273262 C109.004461,7.1373644 108.974253,6.60927816 108.913838,6.24847389 C108.817175,5.70398745 108.629889,5.24478202 108.351981,4.8708576 C108.007616,4.41165217 107.623982,4.09020837 107.201079,3.90652619 C106.778175,3.72284402 106.34923,3.63100294 105.914244,3.63100294 C105.261764,3.63100294 104.669699,3.77860468 104.138049,4.07380817 C103.636606,4.36901166 103.216723,4.83149713 102.8784,5.46126458 C102.685073,4.93645837 102.401124,4.50677329 102.026552,4.17220934 C101.561358,3.81140507 100.951169,3.63100294 100.195984,3.63100294 C99.3985083,3.63100294 98.7490493,3.84092542 98.2476065,4.26077038 C97.963657,4.49693318 97.661583,4.89381787 97.3413846,5.45142446 L97.3413846,5.45142446 L97.3413846,3.88684596 L94.83115,3.88684596 L94.83115,14.5928926 L97.4501313,14.5928926 Z M114.033992,2.5879506 L114.033992,0 L111.415011,0 L111.415011,2.5879506 L114.033992,2.5879506 Z M114.033992,14.5928926 L114.033992,3.86716573 L111.415011,3.86716573 L111.415011,14.5928926 L114.033992,14.5928926 Z M119.842874,14.8290554 C120.350359,14.8290554 120.792897,14.7568945 121.17049,14.6125728 C121.548082,14.4682511 121.939268,14.1992879 122.344047,13.8056833 C122.476959,13.6810418 122.591748,13.5367201 122.688411,13.3727181 C122.785075,13.2087162 122.84549,13.110315 122.869656,13.0775146 L122.869656,13.0775146 L122.869656,14.5928926 L125.37989,14.5928926 L125.37989,3.86716573 L122.760909,3.86716573 L122.760909,9.70235473 C122.760909,10.3911629 122.676328,10.9454894 122.507167,11.3653344 C122.180927,12.1394235 121.576779,12.5264681 120.694723,12.5264681 C120.005994,12.5264681 119.543821,12.2542249 119.308204,11.7097385 C119.175291,11.4014148 119.108835,10.9422094 119.108835,10.3321222 L119.108835,10.3321222 L119.108835,3.86716573 L116.462667,3.86716573 L116.462667,10.3321222 C116.462667,11.5588567 116.604642,12.4871077 116.888591,13.1168751 C117.396075,14.2583286 118.380836,14.8290554 119.842874,14.8290554 Z M130.445671,14.5928926 L130.445671,8.13777623 C130.445671,7.55392933 130.515148,7.11440413 130.654102,6.81920064 C130.907844,6.30095451 131.403245,6.04183145 132.140306,6.04183145 C132.774661,6.04183145 133.200585,6.30095451 133.418079,6.81920064 C133.538908,7.10784405 133.599323,7.57032952 133.599323,8.20665704 L133.599323,8.20665704 L133.599323,14.5928926 L136.20018,14.5928926 L136.20018,8.20665704 C136.20018,7.72777138 136.269657,7.31776653 136.408611,6.9766425 C136.680477,6.3337549 137.172858,6.0123111 137.885753,6.0123111 C138.501983,6.0123111 138.924887,6.26159404 139.154463,6.76015994 C139.275293,7.02256304 139.335708,7.357127 139.335708,7.76385181 L139.335708,7.76385181 L139.335708,14.5928926 L141.981876,14.5928926 L142,7.83273262 C142,7.1373644 141.969793,6.60927816 141.909378,6.24847389 C141.812714,5.70398745 141.625428,5.24478202 141.34752,4.8708576 C141.003156,4.41165217 140.619522,4.09020837 140.196618,3.90652619 C139.773715,3.72284402 139.34477,3.63100294 138.909783,3.63100294 C138.257304,3.63100294 137.665239,3.77860468 137.133588,4.07380817 C136.632146,4.36901166 136.212263,4.83149713 135.87394,5.46126458 C135.680613,4.93645837 135.396663,4.50677329 135.022091,4.17220934 C134.556897,3.81140507 133.946708,3.63100294 133.191523,3.63100294 C132.394048,3.63100294 131.744589,3.84092542 131.243146,4.26077038 C130.959196,4.49693318 130.657123,4.89381787 130.336924,5.45142446 L130.336924,5.45142446 L130.336924,3.88684596 L127.826689,3.88684596 L127.826689,14.5928926 L130.445671,14.5928926 Z" id="Premium" fill-rule="nonzero"></path>
                </g>
            </g>
        </g>
    </g>
</svg>