<?xml version="1.0" encoding="UTF-8"?>
<svg width="375px" height="196px" viewBox="0 0 375 196" version="1.1" xmlns="http://www.w3.org/2000/svg" xmlns:xlink="http://www.w3.org/1999/xlink">
    <title>mdpi/Group 3</title>
    <defs>
        <path d="M0,0 L0,191.563935 C0,191.563935 67.4455613,161.402496 181.655246,161.402496 C295.8629,161.402496 375,196 375,196 L375,0 L0,0 Z" id="path-1"/>
    </defs>
    <g id="measure" stroke="none" stroke-width="1" fill="none" fill-rule="evenodd">
        <g id="Group-3">
            <g id="Group-9">
                <mask id="mask-2" fill="white">
                    <use xlink:href="#path-1"/>
                </mask>
                <g id="Clip-2"/>
                <path d="M0,192 C0,192 62.7841991,161.150777 180.952103,161.150777 C299.118956,161.150777 375,195 375,195 L375,-79 L0,-79 L0,192 Z" id="Fill-1" fill="#2EA400" mask="url(#mask-2)"/>
                <path d="M56.7360917,-31.7821443 C60.5426075,-36.148621 64.29977,-40.556443 68.16614,-44.8735068 C76.8817488,-54.6098421 86.334509,-63.6493564 96.1621454,-72.3510485 C100.707913,-76.3776862 105.363938,-80.2722203 110.234178,-83.8985136 C114.942707,-87.403796 119.718441,-90.8324381 124.705239,-94.0049406 C129.834847,-97.270218 135.002258,-100.443729 140.333481,-103.39337 C148.547154,-107.934304 157.017046,-111.951865 165.786208,-115.398659 C174.082838,-118.659903 182.631485,-121.260629 191.279889,-123.393446 C198.60205,-125.199534 206.117425,-126.370314 213.689504,-127.015706 C224.021176,-127.89606 234.347597,-127.992869 244.671918,-127.03184 C252.651425,-126.288632 260.501774,-124.963562 268.292268,-123.028396 C277.754479,-120.678768 286.859665,-117.492148 295.692882,-113.573411 C314.253978,-105.339628 330.702327,-94.1471284 345.385502,-80.5031494 C353.030036,-73.3977928 359.891216,-65.6248593 366.309264,-57.5221711 C370.217637,-52.5859348 373.594673,-47.2543963 376.877202,-41.8704197 C381.475473,-34.3263985 385.239986,-26.4616984 388.342953,-18.2712774 C392.87717,-6.29926571 395.539105,6.03174497 396.148148,18.7731843 C396.696286,30.2359418 395.674565,41.6704634 392.753261,52.6844721 C389.7364,64.0564714 385.224235,75.0684633 379.301821,85.4663248 C367.358287,106.434488 351.819302,124.627469 333.60788,140.821752 C327.342092,146.393296 320.985998,151.867022 314.329583,156.983767 C306.906615,162.688422 299.210627,168.051222 291.325627,173.180067 C284.679712,177.503181 278.039049,181.846464 271.109615,185.699653 C263.032451,190.191174 254.939535,194.669586 246.593552,198.734544 C233.682901,205.022068 220.610538,210.94051 207.120245,215.958429 C196.287689,219.986075 185.232517,223.389506 174.11644,226.658817 C161.556513,230.354692 148.804422,233.103656 135.88327,235.093277 C120.943876,237.392484 105.851172,238.159895 90.7364164,237.484251 C81.8023924,237.083906 72.8893699,236.085566 64.1947626,233.966867 C48.636876,230.177209 34.1836665,224.085319 21.7644491,214.132172 C15.4556084,209.075934 10.0813331,203.177661 5.50511342,196.569457 C-5.3620956,180.882411 -9.9078631,163.336839 -11.2183546,144.833264 C-12.0899155,132.527464 -11.2572073,120.28822 -9.29567034,108.101414 C-7.930575,99.6235917 -5.94068601,91.2849322 -3.72503126,82.9835845 C-2.13627029,77.0318651 -0.181033727,71.2001482 1.77630298,65.3553217 C7.28078745,48.9240584 14.8035129,33.3398713 23.1578964,18.118717 C28.4114133,8.54776326 34.1710656,-0.761000197 40.4358032,-9.77026168 C41.1099503,-10.7423826 41.6979913,-11.7689584 42.3248851,-12.7693151 C47.1279206,-19.1052442 51.9320061,-25.44319 56.7360917,-31.7821443" id="Fill-4" fill-opacity="0.4" fill="#39C600" mask="url(#mask-2)"/>
                <path d="M129.945594,-10.185407 C134.128036,-12.7286527 138.282127,-15.3172775 142.499221,-17.8080852 C152.006585,-23.422991 161.914027,-28.3057808 172.032534,-32.8275547 C176.712711,-34.9200349 181.445391,-36.8824283 186.278879,-38.5765809 C190.950655,-40.2152702 195.654984,-41.7773192 200.459069,-43.0832285 C205.403865,-44.4274579 210.35181,-45.6920218 215.373261,-46.7357408 C223.106001,-48.3431689 230.904896,-49.4715956 238.789897,-50.0726164 C246.250668,-50.6413676 253.736641,-50.6242244 261.17956,-50.2097621 C267.48,-49.8598389 273.765739,-48.9572992 279.958022,-47.6231541 C288.405862,-45.80194 296.644737,-43.3585283 304.600093,-40.0761076 C310.750373,-37.537904 316.642334,-34.5691033 322.325331,-31.1293684 C329.228513,-26.9524756 335.62661,-22.1957388 341.614128,-16.9247057 C354.197157,-5.84716622 364.315664,7.06570521 372.382327,21.4992803 C376.582621,29.0150656 379.981708,36.8706898 382.941865,44.8795945 C384.743791,49.759359 386.01858,54.8236652 387.205163,59.906123 C388.865329,67.026606 389.778892,74.2005355 390.080263,81.4712737 C390.518144,92.0970392 389.373564,102.553389 386.485862,112.834274 C383.889031,122.08354 380.052063,130.928428 374.814297,138.973636 C369.40642,147.281035 362.905415,154.936991 355.443594,161.760997 C340.398143,175.520945 323.227344,186.197132 304.460433,194.6326 C298.004582,197.534845 291.501478,200.337255 284.853464,202.780667 C277.442046,205.507446 269.90252,207.894386 262.275837,210.049388 C255.846238,211.864552 249.416639,213.699884 242.887283,215.072349 C235.275301,216.673727 227.653869,218.259978 219.94108,219.455969 C208.011197,221.306427 196.048761,222.823097 183.993919,223.521935 C174.314343,224.082619 164.621116,224.090686 154.916338,223.978751 C143.951473,223.852698 133.081113,222.926965 122.281109,221.35584 C109.792587,219.540677 97.5875842,216.469017 85.7448571,212.242711 C78.7461182,209.744844 71.9216916,206.776044 65.5676978,202.969242 C54.1996038,196.159354 44.3173636,187.788425 37.0750077,176.843998 C33.3955507,171.282538 30.6821612,165.281406 28.789929,158.910182 C24.2998154,143.78382 25.3257371,128.720988 29.1795062,113.686392 C31.7427353,103.687867 35.6416576,94.1572497 40.4268418,84.9442866 C43.7545242,78.5347426 47.5431889,72.3904141 51.5019654,66.3287765 C54.3382135,61.9834768 57.4369799,57.8227187 60.5399466,53.6538932 C69.2660561,41.9289454 79.3709119,31.3717528 90.0417572,21.3056628 C96.7517259,14.9757844 103.794568,8.97767742 111.158732,3.34159477 C111.953638,2.73452342 112.691839,2.06089608 113.455243,1.41953831 C118.950276,-2.44776836 124.44846,-6.31608346 129.945594,-10.185407" id="Fill-7" fill-opacity="0.3" fill="#44E800" mask="url(#mask-2)"/>
                <path d="M141.945594,37.814593 C146.128036,35.2713473 150.282127,32.6827225 154.499221,30.1919148 C164.006585,24.577009 173.914027,19.6942192 184.032534,15.1724453 C188.712711,13.0799651 193.445391,11.1175717 198.278879,9.4234191 C202.950655,7.78472984 207.654984,6.22268081 212.459069,4.91677151 C217.403865,3.5725421 222.35181,2.3079782 227.373261,1.26425919 C235.106001,-0.343168927 242.904896,-1.47159557 250.789897,-2.07261637 C258.250668,-2.6413676 265.736641,-2.62422439 273.17956,-2.20976206 C279.48,-1.85983887 285.765739,-0.957299243 291.958022,0.376845926 C300.405862,2.19805997 308.644737,4.64147172 316.600093,7.92389237 C322.750373,10.462096 328.642334,13.4308967 334.325331,16.8706316 C341.228513,21.0475244 347.62661,25.8042612 353.614128,31.0752943 C366.197157,42.1528338 376.315664,55.0657052 384.382327,69.4992803 C388.582621,77.0150656 391.981708,84.8706898 394.941865,92.8795945 C396.743791,97.759359 398.01858,102.823665 399.205163,107.906123 C400.865329,115.026606 401.778892,122.200536 402.080263,129.471274 C402.518144,140.097039 401.373564,150.553389 398.485862,160.834274 C395.889031,170.08354 392.052063,178.928428 386.814297,186.973636 C381.40642,195.281035 374.905415,202.936991 367.443594,209.760997 C352.398143,223.520945 335.227344,234.197132 316.460433,242.6326 C310.004582,245.534845 303.501478,248.337255 296.853464,250.780667 C289.442046,253.507446 281.90252,255.894386 274.275837,258.049388 C267.846238,259.864552 261.416639,261.699884 254.887283,263.072349 C247.275301,264.673727 239.653869,266.259978 231.94108,267.455969 C220.011197,269.306427 208.048761,270.823097 195.993919,271.521935 C186.314343,272.082619 176.621116,272.090686 166.916338,271.978751 C155.951473,271.852698 145.081113,270.926965 134.281109,269.35584 C121.792587,267.540677 109.587584,264.469017 97.7448571,260.242711 C90.7461182,257.744844 83.9216916,254.776044 77.5676978,250.969242 C66.1996038,244.159354 56.3173636,235.788425 49.0750077,224.843998 C45.3955507,219.282538 42.6821612,213.281406 40.789929,206.910182 C36.2998154,191.78382 37.3257371,176.720988 41.1795062,161.686392 C43.7427353,151.687867 47.6416576,142.15725 52.4268418,132.944287 C55.7545242,126.534743 59.5431889,120.390414 63.5019654,114.328776 C66.3382135,109.983477 69.4369799,105.822719 72.5399466,101.653893 C81.2660561,89.9289454 91.3709119,79.3717528 102.041757,69.3056628 C108.751726,62.9757844 115.794568,56.9776774 123.158732,51.3415948 C123.953638,50.7345234 124.691839,50.0608961 125.455243,49.4195383 C130.950276,45.5522316 136.44846,41.6839165 141.945594,37.814593" id="Fill-7-Copy" fill-opacity="0.3" fill="#2EA400" mask="url(#mask-2)"/>
            </g>
            <g id="Group-73" transform="translate(90.000000, 55.000000)">
                <path d="M120.069407,43.7328645 C120.069407,39.7697685 117.217066,36.7396476 113.491719,36.7396476 C109.766372,36.7396476 106.91403,39.7697685 106.91403,43.7328645 C106.91403,47.5803626 109.766372,50.6687376 113.491719,50.6687376 C117.217066,50.6687376 120.069407,47.5803626 120.069407,43.7328645 M106.797064,55.273235 L106.797064,58.1877581 L97.6585402,58.1877581 L97.6585402,15.0576106 L107.146751,15.0576106 L107.146751,31.8438799 C109.358202,29.8623319 112.152061,28.6380866 115.470752,28.6380866 C123.560822,28.6380866 129.731855,35.3982873 129.731855,43.7328645 C129.731855,52.0677451 123.560822,58.770602 115.470752,58.770602 C111.977823,58.770602 109.008818,57.4877992 106.797064,55.273235" id="Fill-2" fill="#FFFFFF"/>
                <path d="M141.836081,43.6757027 C141.836081,47.6387987 144.68812,50.6689197 148.41377,50.6689197 C152.139117,50.6689197 154.991155,47.6387987 154.991155,43.6757027 C154.991155,39.828508 152.139117,36.7398296 148.41377,36.7398296 C144.68812,36.7398296 141.836081,39.828508 141.836081,43.6757027 M155.108122,32.1353322 L155.108122,29.2208092 L164.246948,29.2208092 L164.246948,58.1876367 L155.108122,58.1876367 L155.108122,55.2148596 C152.895458,57.430334 149.927362,58.7704806 146.434736,58.7704806 C138.343455,58.7704806 132.173633,52.0102799 132.173633,43.6757027 C132.173633,35.3984694 138.343455,28.6379652 146.434736,28.6379652 C149.927362,28.6379652 152.895458,29.9781118 155.108122,32.1353322" id="Fill-4" fill="#FFFFFF"/>
                <polygon id="Fill-6" fill="#FFFFFF" points="169.282591 52.2430837 182.903106 37.4969199 170.271653 37.4969199 170.271653 29.2209002 195.185175 29.2209002 195.185175 35.5739294 182.205247 49.9702655 196 49.9702655 196 58.1877277 169.282591 58.1877277"/>
                <path d="M86.8896091,43.5 C86.8896091,67.5246387 67.4386563,87 43.4448045,87 C19.4509528,87 0,67.5246387 0,43.5 C0,19.4756647 19.4509528,0 43.4448045,0 C67.4386563,0 86.8896091,19.4756647 86.8896091,43.5" id="Fill-8" fill="#00EB00"/>
                <path d="M77.8091444,26.7351512 C85.0986306,41.7146347 84.4462252,61.3635445 65.4670769,70.6229048 C46.4882317,79.8819616 16.3697085,75.2443929 9.08022233,60.2649095 C1.79103913,45.2857294 18.8478187,22.1060779 37.8266639,12.847021 C56.8058122,3.58796418 70.5199612,11.7556678 77.8091444,26.7351512" id="Fill-10" fill="#CAFF64"/>
                <path d="M70.4555691,59.7526986 C65.0487557,68.9128449 41.6391295,70.4329116 28.9640414,62.9320955 C16.2886503,55.4315829 19.1473555,41.7503759 24.5541689,32.5902296 C29.9609823,23.4300833 41.3894397,17.6632355 54.0645278,25.1640516 C66.7399189,32.6645642 75.8623825,50.5925522 70.4555691,59.7526986" id="Fill-12" fill="#FF00BE"/>
                <path d="M59.1526231,38.4834159 C60.8456045,45.167765 58.8735403,53.6006459 49.6735033,55.9365727 C40.4737692,58.2728029 27.5302041,53.6273456 25.8372227,46.9429965 C24.1442413,40.2586474 34.3427344,34.0664237 43.5424684,31.7304969 C52.7425054,29.3942667 57.4596418,31.7990668 59.1526231,38.4834159" id="Fill-14" fill="#8200FF"/>
                <path d="M50.0211296,43.679556 C50.0211296,47.3161866 47.0769723,50.2640843 43.444653,50.2640843 C39.8126368,50.2640843 36.8681765,47.3161866 36.8681765,43.679556 C36.8681765,40.0429254 39.8126368,37.0947242 43.444653,37.0947242 C47.0769723,37.0947242 50.0211296,40.0429254 50.0211296,43.679556" id="Fill-16" fill="#FFFFFF"/>
            </g>
        </g>
    </g>
</svg>