<?xml version="1.0" encoding="UTF-8"?>
<svg width="82px" height="36px" viewBox="0 0 82 36" version="1.1" xmlns="http://www.w3.org/2000/svg" xmlns:xlink="http://www.w3.org/1999/xlink">
    <title>1EB533C4-2ED1-45E7-820F-F1E0597AFC0F</title>
    <defs>
        <polygon id="path-1" points="0 0 11.0682 0 11.0682 11.986 0 11.986"></polygon>
        <polygon id="path-3" points="0 0 35.9978 0 35.9978 35.9979 0 35.9979"></polygon>
    </defs>
    <g id="Pago-de-servicios-y-gift-cards" stroke="none" stroke-width="1" fill="none" fill-rule="evenodd">
        <g id="12-AN:DP:C:DA:VerEnApp-Copy" transform="translate(-278.000000, -88.000000)">
            <g id="Group-6" transform="translate(16.000000, 84.000000)">
                <g id="Group-19" transform="translate(262.000000, 4.000000)">
                    <path d="M49.7439,18.0953 C49.7439,16.4553 48.5619,15.2013 47.0189,15.2013 C45.4759,15.2013 44.2939,16.4553 44.2939,18.0953 C44.2939,19.6873 45.4759,20.9653 47.0189,20.9653 C48.5619,20.9653 49.7439,19.6873 49.7439,18.0953 M44.2449,22.8703 L44.2449,24.0763 L40.4589,24.0763 L40.4589,6.2303 L44.3899,6.2303 L44.3899,13.1763 C45.3069,12.3563 46.4639,11.8493 47.8389,11.8493 C51.1899,11.8493 53.7469,14.6463 53.7469,18.0953 C53.7469,21.5443 51.1899,24.3173 47.8389,24.3173 C46.3919,24.3173 45.1619,23.7863 44.2449,22.8703" id="Fill-1" fill="#05C13F"></path>
                    <path d="M58.7618,18.0716 C58.7618,19.7116 59.9438,20.9656 61.4868,20.9656 C63.0298,20.9656 64.2118,19.7116 64.2118,18.0716 C64.2118,16.4796 63.0298,15.2016 61.4868,15.2016 C59.9438,15.2016 58.7618,16.4796 58.7618,18.0716 M64.2608,13.2966 L64.2608,12.0906 L68.0468,12.0906 L68.0468,24.0766 L64.2608,24.0766 L64.2608,22.8466 C63.3438,23.7626 62.1138,24.3176 60.6668,24.3176 C57.3148,24.3176 54.7588,21.5206 54.7588,18.0716 C54.7588,14.6466 57.3148,11.8496 60.6668,11.8496 C62.1138,11.8496 63.3438,12.4036 64.2608,13.2966" id="Fill-3" fill="#05C13F"></path>
                    <g id="Group-7" transform="translate(70.132800, 12.090600)">
                        <mask id="mask-2" fill="white">
                            <use xlink:href="#path-1"></use>
                        </mask>
                        <g id="Clip-6"></g>
                        <polygon id="Fill-5" fill="#05C13F" mask="url(#mask-2)" points="0 9.526 5.643 3.425 0.41 3.425 0.41 0 10.731 0 10.731 2.629 5.354 8.585 11.069 8.585 11.069 11.986 0 11.986"></polygon>
                    </g>
                    <g id="Group-10">
                        <mask id="mask-4" fill="white">
                            <use xlink:href="#path-3"></use>
                        </mask>
                        <g id="Clip-9"></g>
                        <path d="M35.9978,17.999 C35.9978,27.94 27.9398,35.998 17.9988,35.998 C8.0588,35.998 -0.0002,27.94 -0.0002,17.999 C-0.0002,8.059 8.0588,0 17.9988,0 C27.9398,0 35.9978,8.059 35.9978,17.999" id="Fill-8" fill="#05C13F" mask="url(#mask-4)"></path>
                    </g>
                    <path d="M32.2358,11.0622 C35.2558,17.2602 34.9858,25.3902 27.1228,29.2212 C19.2598,33.0522 6.7818,31.1342 3.7618,24.9362 C0.7418,18.7382 7.8088,9.1472 15.6718,5.3162 C23.5338,1.4842 29.2158,4.8642 32.2358,11.0622" id="Fill-11" fill="#D8F475"></path>
                    <path d="M29.1893,24.7238 C26.9493,28.5138 17.2513,29.1428 11.9993,26.0398 C6.7483,22.9358 7.9323,17.2748 10.1723,13.4848 C12.4123,9.6948 17.1473,7.3088 22.3983,10.4118 C27.6503,13.5158 31.4293,20.9338 29.1893,24.7238" id="Fill-13" fill="#E10097"></path>
                    <path d="M24.5066,15.9233 C25.2076,18.6893 24.3906,22.1783 20.5796,23.1453 C16.7676,24.1113 11.4056,22.1893 10.7046,19.4233 C10.0026,16.6583 14.2276,14.0953 18.0396,13.1293 C21.8506,12.1623 23.8056,13.1573 24.5066,15.9233" id="Fill-15" fill="#7946C8"></path>
                    <path d="M20.7234,18.0732 C20.7234,19.5782 19.5034,20.7982 17.9984,20.7982 C16.4944,20.7982 15.2744,19.5782 15.2744,18.0732 C15.2744,16.5682 16.4944,15.3482 17.9984,15.3482 C19.5034,15.3482 20.7234,16.5682 20.7234,18.0732" id="Fill-17" fill="#FFFFFF"></path>
                </g>
            </g>
        </g>
    </g>
</svg>