<svg width="24" height="24" xmlns="http://www.w3.org/2000/svg">
    <defs>
        <linearGradient x1="50%" y1="0%" x2="50%" y2="100%" id="a">
            <stop stop-color="#2B2B2B" offset="0%"/>
            <stop offset="100%"/>
        </linearGradient>
    </defs>
    <g fill="none" fill-rule="evenodd">
        <path d="M0 24h24V0H0z"/>
        <path d="M10.695 10.717c0-.33.205-.592.565-.737v1.447c-.41-.196-.565-.418-.565-.71zm1.978 2.229c.446.24.566.523.566.819 0 .228-.124.55-.566.717v-1.536zm4.022-7.704a.778.778 0 0 1 1.084-.112c2.183 1.741 3.436 4.326 3.437 7.092.002 5.03-4.145 9.125-9.246 9.127h-.003v1.365c0 .335-.417.51-.656.267l-2.143-2.12a.386.386 0 0 1 0-.54l2.143-2.121a.381.381 0 0 1 .655.265v1.364c4.254-.003 7.71-3.414 7.708-7.606a7.539 7.539 0 0 0-2.864-5.911.754.754 0 0 1-.115-1.07zM11.967 1.74c0-.335.416-.51.654-.267l2.143 2.12a.386.386 0 0 1 0 .54l-2.143 2.121a.381.381 0 0 1-.654-.265V4.623l-.003.001c-4.251.002-7.707 3.414-7.705 7.606a7.536 7.536 0 0 0 2.865 5.911c.33.264.382.742.114 1.07a.774.774 0 0 1-1.084.112c-2.182-1.741-3.436-4.326-3.437-7.092-.002-5.03 4.145-9.125 9.246-9.127h.004zm0 6.307a.7.7 0 0 1 .706.696v.321c.735.176 1.197.632 1.394 1.18.109.288-.113.59-.423.59h-.142c-.198 0-.353-.14-.41-.325a.82.82 0 0 0-.419-.506v1.88c.872.294 1.649.791 1.649 1.878 0 .952-.73 1.477-1.649 1.649v.302a.7.7 0 0 1-.707.697.7.7 0 0 1-.706-.697V15.4c-.707-.148-1.333-.53-1.602-1.176a.444.444 0 0 1 .42-.603h.132a.46.46 0 0 1 .423.311c.099.247.297.448.627.562v-2.01c-.998-.328-1.648-.848-1.648-1.758 0-.896.735-1.482 1.648-1.677v-.307a.7.7 0 0 1 .706-.696z" fill="url(#a)"/>
    </g>
</svg>
