<svg width="24" height="24" xmlns="http://www.w3.org/2000/svg" xmlns:xlink="http://www.w3.org/1999/xlink">
    <defs>
        <path id="a" d="M0 0h13.31v14.524H0z"/>
        <path id="c" d="M0 0h13.31v14.524H0z"/>
    </defs>
    <g fill="none" fill-rule="evenodd">
        <g transform="translate(4 1)">
            <mask id="b" fill="#fff">
                <use xlink:href="#a"/>
            </mask>
            <path d="M12.952 2.877 10.484.373A1.253 1.253 0 0 0 8.717.357a1.255 1.255 0 0 0-.014 1.77l.379.384c-.245-.022-.489-.046-.739-.046A8.343 8.343 0 0 0 0 10.81c0 1 .189 1.953.513 2.84.018.06.032.118.059.171l.012.038.01-.004c.207.394.607.67 1.082.67.683 0 1.236-.552 1.236-1.235 0-.146-.036-.28-.082-.409l.013-.005a5.81 5.81 0 0 1-.38-2.053A5.844 5.844 0 0 1 8.307 4.98c.229 0 .451.03.673.056l-.301.296A1.254 1.254 0 0 0 8.665 7.1c.483.49 1.278.497 1.768.013l2.506-2.466c.49-.484.495-1.278.013-1.768" fill="#212121" mask="url(#b)"/>
        </g>
        <g transform="translate(7.39 8.147)">
            <mask id="d" fill="#fff">
                <use xlink:href="#c"/>
            </mask>
            <path d="m.358 11.647 2.468 2.506c.482.49 1.278.495 1.767.013.49-.482.496-1.278.014-1.768l-.379-.384c.245.022.489.045.739.045a8.343 8.343 0 0 0 8.343-8.343c0-1-.189-1.953-.513-2.841-.018-.059-.032-.117-.059-.171-.005-.013-.007-.026-.012-.038l-.01.004A1.225 1.225 0 0 0 11.634 0c-.683 0-1.236.553-1.236 1.236 0 .144.036.279.082.408l-.013.005c.241.64.38 1.329.38 2.053a5.844 5.844 0 0 1-5.844 5.844c-.229 0-.451-.03-.673-.057l.301-.297c.49-.482.497-1.277.014-1.767a1.254 1.254 0 0 0-1.768-.014L.371 9.879a1.254 1.254 0 0 0-.013 1.768" fill="#212121" mask="url(#d)"/>
        </g>
    </g>
</svg>
