<svg width="48" height="48" xmlns="http://www.w3.org/2000/svg">
    <path d="m43.429 35.475-15.48-27.21C27.142 6.847 25.666 6 24 6s-3.141.847-3.948 2.265l-15.48 27.21a4.253 4.253 0 0 0 .06 4.362C5.453 41.191 6.907 42 8.523 42H39.48c1.614 0 3.068-.809 3.889-2.163a4.258 4.258 0 0 0 .06-4.362zM22.5 18.162c0-.806.672-1.46 1.5-1.46s1.5.654 1.5 1.46v9.73c0 .806-.672 1.46-1.5 1.46s-1.5-.654-1.5-1.46v-9.73zm1.5 18c-1.105 0-2-.87-2-1.946 0-1.075.895-1.946 2-1.946s2 .871 2 1.946-.895 1.946-2 1.946z" fill="#FC3737" fill-rule="evenodd"/>
</svg>
